PathFileType	4	(X/Y/Z)	Kaydara																																																																																																																									
DataRate	CameraRate	NumFrames	NumMarkers	Units	OrigDataRate	OrigDataStartFrame	OrigNumFrames																																																																																																																					
30	30	4	41	mm	30	49	133																																																																																																																					
Frame#	Time	PAIB_LFHD			PAIB_RFHD			PAIB_LBHD			PAIB_RBHD			PAIB_LFTShould			PAIB_RFTShould			PAIB_LRRShould			PAIB_RRRShould			PAIB_T10			PAIB_STRN			PAIB_TRUN			PAIB_LSHO			PAIB_LUPA			PAIB_LELB			PAIB_LFRM			PAIB_LWRA			PAIB_LWRB			PAIB_LFIN			PAIB_RSHO			PAIB_RUPA			PAIB_RELB			PAIB_RFRM			PAIB_RWRA			PAIB_RWRB			PAIB_RFIN			PAIB_LFWT			PAIB_RFWT			PAIB_LBWT			PAIB_RBWT			PAIB_LTHI			PAIB_LKNE			PAIB_LSHN			PAIB_LANK			PAIB_LHEE			PAIB_LTOE			PAIB_RTHI			PAIB_RKNE			PAIB_RSHN			PAIB_RANK			PAIB_RHEE			PAIB_RTOE		
		X1	Y1	Z1	X2	Y2	Z2	X3	Y3	Z3	X4	Y4	Z4	X5	Y5	Z5	X6	Y6	Z6	X7	Y7	Z7	X8	Y8	Z8	X9	Y9	Z9	X10	Y10	Z10	X11	Y11	Z11	X12	Y12	Z12	X13	Y13	Z13	X14	Y14	Z14	X15	Y15	Z15	X16	Y16	Z16	X17	Y17	Z17	X18	Y18	Z18	X19	Y19	Z19	X20	Y20	Z20	X21	Y21	Z21	X22	Y22	Z22	X23	Y23	Z23	X24	Y24	Z24	X25	Y25	Z25	X26	Y26	Z26	X27	Y27	Z27	X28	Y28	Z28	X29	Y29	Z29	X30	Y30	Z30	X31	Y31	Z31	X32	Y32	Z32	X33	Y33	Z33	X34	Y34	Z34	X35	Y35	Z35	X36	Y36	Z36	X37	Y37	Z37	X38	Y38	Z38	X39	Y39	Z39	X40	Y40	Z40	X41	Y41	Z41
																																																																																																																												
34	1.6	275.54829	1698.54248	-1972.16476	89.29106	1703.66608	-1983.98285	286.57934	1631.18195	-2082.53693	84.63606	1653.36853	-2089.48196	243.74228	1430.6308	-1937.2905	119.94747	1425.9642	-1937.84042	249.98251	1495.72556	-2082.26242	97.45446	1490.94147	-2073.22998	174.66974	1335.14862	-2160.52414	190.77473	1362.07062	-1899.33975	192.13398	1260.25917	-1878.15872	372.70611	1447.02591	-2022.03903	446.65157	1230.39146	-2053.89252	464.24141	1153.57544	-2098.97736	498.49918	1044.01611	-2049.88235	458.89458	935.74539	-1949.06876	492.98557	913.96835	-2016.0672	507.16908	879.58542	-1952.38297	-8.39468	1427.34283	-1992.6712	-76.69325	1255.51842	-2029.7818	-102.41481	1140.5072	-2029.79324	-114.44799	1011.76292	-1973.35556	-46.44777	930.86525	-1861.82907	-115.88326	905.83687	-1902.45667	-102.28219	882.99858	-1831.99661	287.85568	965.03357	-1921.49384	52.27355	971.61194	-1929.71344	237.78725	1019.21295	-2136.25397	93.3966	1026.1631	-2138.35007	278.93362	738.04909	-2130.86182	300.4871	489.51969	-2026.50345	269.26611	299.0752	-2048.44604	282.39096	130.23745	-2166.96777	232.70815	126.13305	-2221.99799	253.4552	89.15125	-2008.95477	25.9346	729.24812	-2141.19308	5.33264	486.24474	-2062.02805	56.10546	296.47665	-2066.78986	15.20317	106.84899	-2176.39862	82.71402	113.01561	-2225.63599	24.89872	96.55943	-2011.79169
35	1.633	277.57305	1696.85349	-1961.6925	91.27115	1701.74377	-1973.18985	288.57796	1629.7699	-2072.17239	86.66646	1651.65863	-2078.7793	246.54556	1428.51196	-1927.5322	122.72079	1423.67218	-1927.9834	252.59024	1493.37509	-2072.15652	100.05197	1489.08279	-2063.34152	177.5445	1333.2135	-2150.65262	193.62703	1359.88449	-1889.76608	195.27676	1257.94182	-1868.60031	375.58182	1445.58411	-2012.99789	452.53899	1232.95563	-2052.18079	472.03171	1155.11696	-2093.88489	510.19547	1046.05621	-2046.52176	475.59708	935.92598	-1945.45029	508.80703	915.92133	-2013.44299	526.6124	881.79367	-1950.92316	-5.61712	1425.04166	-1983.07343	-73.06489	1252.85858	-2019.96399	-98.17641	1137.96944	-2019.9585	-108.65689	1010.12383	-1960.10223	-40.53524	933.90434	-1845.33005	-108.63227	906.06415	-1886.33301	-96.04795	886.42326	-1814.74854	292.05723	962.83791	-1913.09891	56.33605	969.25598	-1920.6488	242.01248	1018.5112	-2127.20459	97.66813	1025.71159	-2129.30756	284.01442	737.32697	-2124.52637	301.25954	487.77935	-2021.43265	269.34498	297.55684	-2045.96069	282.91332	129.83032	-2166.24237	234.09184	126.42776	-2222.04819	251.44754	89.31578	-2009.31503	29.44565	728.99185	-2134.32037	7.85224	485.35828	-2057.6236	57.84597	295.38769	-2064.59076	15.46636	106.86336	-2175.56015	82.75948	113.27188	-2225.28595	26.28337	95.8188	-2011.21246
36	1.667	279.99985	1694.77859	-1949.17847	93.94999	1698.55347	-1960.57541	291.51905	1627.50443	-2059.46808	89.52343	1648.17749	-2066.1058	250.62	1425.41718	-1916.79962	126.4372	1420.78735	-1915.88959	255.94938	1491.02783	-2059.84863	103.45321	1487.16888	-2051.02112	181.124	1331.60034	-2139.33014	198.26937	1356.72104	-1878.2016	199.69776	1254.86931	-1857.82837	379.20025	1443.62137	-2000.78949	460.43137	1231.41693	-2037.95746	479.98615	1155.9996	-2084.63303	521.28227	1047.7182	-2038.90549	490.86319	934.87389	-1939.26102	524.43611	917.47528	-2007.9068	545.7803	884.85123	-1946.01532	-1.76264	1422.34375	-1970.78812	-68.66646	1250.45418	-2009.05182	-93.42252	1135.43938	-2009.54971	-103.0687	1008.13461	-1948.16559	-35.12066	934.9398	-1831.34216	-101.96942	904.88724	-1872.99255	-90.906	887.78641	-1800.3717	296.85719	960.13329	-1903.93265	61.23594	966.15112	-1909.74518	246.13316	1017.12296	-2117.01385	101.75583	1024.47968	-2118.42773	287.78408	736.6349	-2117.10052	304.59158	485.81894	-2017.76749	269.45072	296.98889	-2042.2226	284.00835	129.10239	-2166.01959	235.47119	126.59452	-2221.89026	252.37749	88.32576	-2009.7731	32.56648	727.91245	-2125.55359	10.73426	483.75111	-2051.20682	59.66455	293.71344	-2060.78598	16.0618	106.96217	-2174.28406	83.40665	113.77902	-2223.78876	26.66931	92.25621	-2009.82834
37	1.7	283.19439	1692.40723	-1934.76212	97.17531	1694.70657	-1946.24924	295.47916	1624.64294	-2044.61014	93.30538	1643.70743	-2051.40793	254.99744	1422.46918	-1902.24518	131.63818	1417.13562	-1901.71417	260.09182	1488.72635	-2045.6279	107.61624	1484.98383	-2036.41403	185.60543	1330.03525	-2126.34308	203.29288	1353.14117	-1865.4657	205.62033	1250.95154	-1845.73059	383.69026	1441.73691	-1987.38174	467.50023	1230.58998	-2024.26682	488.21117	1155.67612	-2071.80298	531.27983	1047.89734	-2027.06161	503.96706	931.85822	-1929.50256	538.54084	917.61009	-1998.64014	562.03674	886.02509	-1936.91544	3.45096	1418.75412	-1956.39557	-63.86967	1247.78847	-1996.57944	-88.76238	1132.94395	-1999.27399	-98.16084	1005.22835	-1938.22983	-30.95248	932.3568	-1820.93201	-96.63907	901.36459	-1863.3667	-87.13595	885.91415	-1790.12848	302.58938	957.18056	-1894.28558	67.4364	962.22679	-1898.34763	249.74356	1015.45326	-2106.32538	105.08907	1022.80937	-2105.90775	290.66141	735.67825	-2109.03687	309.25379	483.43979	-2013.93387	274.04816	292.88029	-2044.01169	285.52816	128.04098	-2165.23438	236.86323	126.69451	-2221.19629	254.646	85.16909	-2009.45038	35.77915	725.6414	-2113.78738	14.32612	481.25042	-2040.92865	62.45015	290.93403	-2054.71588	17.21597	107.32401	-2172.52716	84.5258	114.90482	-2222.16339	27.70126	89.41021	-2008.60931
